<mxfile host="65bd71144e">
    <diagram id="SjnCO4Wiz7l6OKVx3Laa" name="第 1 页">
        <mxGraphModel dx="1596" dy="583" grid="1" gridSize="10" guides="1" tooltips="1" connect="1" arrows="1" fold="1" page="1" pageScale="1" pageWidth="827" pageHeight="1169" math="0" shadow="0">
            <root>
                <mxCell id="0"/>
                <mxCell id="1" parent="0"/>
                <mxCell id="33" value="Throwable" style="swimlane;fontStyle=3;align=center;verticalAlign=top;childLayout=stackLayout;horizontal=1;startSize=30;horizontalStack=0;resizeParent=1;resizeLast=0;collapsible=1;marginBottom=0;rounded=0;shadow=0;strokeWidth=1;fontFamily=Verdana;labelBackgroundColor=none;labelBorderColor=none;fillColor=#76608a;fontColor=#ffffff;strokeColor=#432D57;swimlaneLine=0;connectable=1;allowArrows=1;expand=1;" parent="1" vertex="1">
                    <mxGeometry x="280" y="240" width="160" height="30" as="geometry">
                        <mxRectangle x="230" y="140" width="160" height="26" as="alternateBounds"/>
                    </mxGeometry>
                </mxCell>
                <mxCell id="74" style="edgeStyle=elbowEdgeStyle;html=1;exitX=0.25;exitY=1;exitDx=0;exitDy=0;entryX=0.5;entryY=0;entryDx=0;entryDy=0;endArrow=none;endFill=0;strokeColor=#FFFFFF;strokeWidth=1;elbow=vertical;rounded=0;startArrow=block;startFill=0;endSize=10;fontFamily=Verdana;fontStyle=1;labelBackgroundColor=none;labelBorderColor=none;" parent="1" source="39" target="72" edge="1">
                    <mxGeometry relative="1" as="geometry"/>
                </mxCell>
                <mxCell id="39" value="Error" style="swimlane;fontStyle=1;align=center;verticalAlign=top;childLayout=stackLayout;horizontal=1;startSize=30;horizontalStack=0;resizeParent=1;resizeLast=0;collapsible=1;marginBottom=0;rounded=0;shadow=0;strokeWidth=1;fontFamily=Verdana;labelBackgroundColor=none;labelBorderColor=none;fillColor=#647687;fontColor=#ffffff;strokeColor=#314354;swimlaneLine=0;connectable=1;allowArrows=1;expand=1;" parent="1" vertex="1">
                    <mxGeometry x="80" y="320" width="160" height="30" as="geometry">
                        <mxRectangle x="60" y="590" width="160" height="26" as="alternateBounds"/>
                    </mxGeometry>
                </mxCell>
                <mxCell id="45" value="" style="endArrow=block;endSize=10;endFill=0;shadow=0;strokeWidth=1;rounded=0;edgeStyle=elbowEdgeStyle;elbow=vertical;fontFamily=Verdana;fontStyle=1;labelBackgroundColor=none;labelBorderColor=none;" parent="1" source="39" target="33" edge="1">
                    <mxGeometry width="160" relative="1" as="geometry">
                        <mxPoint x="290" y="233" as="sourcePoint"/>
                        <mxPoint x="290" y="233" as="targetPoint"/>
                    </mxGeometry>
                </mxCell>
                <mxCell id="49" value="" style="endArrow=block;endSize=10;endFill=0;shadow=0;strokeWidth=1;rounded=0;edgeStyle=elbowEdgeStyle;elbow=vertical;fontFamily=Verdana;fontStyle=1;labelBackgroundColor=none;labelBorderColor=none;" parent="1" source="70" target="33" edge="1">
                    <mxGeometry width="160" relative="1" as="geometry">
                        <mxPoint x="500" y="390" as="sourcePoint"/>
                        <mxPoint x="400" y="301" as="targetPoint"/>
                    </mxGeometry>
                </mxCell>
                <mxCell id="64" value="Object" style="swimlane;fontStyle=3;align=center;verticalAlign=top;childLayout=stackLayout;horizontal=1;startSize=30;horizontalStack=0;resizeParent=1;resizeLast=0;collapsible=1;marginBottom=0;rounded=0;shadow=0;strokeWidth=1;fontFamily=Verdana;labelBackgroundColor=none;labelBorderColor=none;fillColor=#6d8764;fontColor=#ffffff;strokeColor=#3A5431;swimlaneLine=0;connectable=1;allowArrows=1;expand=1;pointerEvents=1;deletable=1;cloneable=1;rotatable=1;resizable=1;" parent="1" vertex="1">
                    <mxGeometry x="400" y="160" width="160" height="30" as="geometry">
                        <mxRectangle x="230" y="140" width="160" height="26" as="alternateBounds"/>
                    </mxGeometry>
                </mxCell>
                <mxCell id="66" value="" style="endArrow=block;endSize=10;endFill=0;shadow=0;strokeWidth=1;rounded=0;edgeStyle=elbowEdgeStyle;elbow=vertical;exitX=0.75;exitY=0;exitDx=0;exitDy=0;entryX=0.5;entryY=1;entryDx=0;entryDy=0;fontFamily=Verdana;fontStyle=1;labelBackgroundColor=none;labelBorderColor=none;" parent="1" source="33" target="64" edge="1">
                    <mxGeometry width="160" relative="1" as="geometry">
                        <mxPoint x="500" y="320" as="sourcePoint"/>
                        <mxPoint x="390" y="200" as="targetPoint"/>
                    </mxGeometry>
                </mxCell>
                <mxCell id="102" value="继承类" style="edgeLabel;html=1;align=center;verticalAlign=middle;resizable=0;points=[];fontColor=#E6E6E6;labelBackgroundColor=none;" parent="66" vertex="1" connectable="0">
                    <mxGeometry x="-0.3104" y="1" relative="1" as="geometry">
                        <mxPoint x="10" as="offset"/>
                    </mxGeometry>
                </mxCell>
                <mxCell id="67" value="Serializable" style="swimlane;fontStyle=3;align=center;verticalAlign=top;childLayout=stackLayout;horizontal=1;startSize=30;horizontalStack=0;resizeParent=1;resizeLast=0;collapsible=1;marginBottom=0;rounded=0;shadow=0;strokeWidth=1;fontFamily=Verdana;labelBackgroundColor=none;labelBorderColor=none;fillColor=#6d8764;fontColor=#ffffff;strokeColor=#3A5431;swimlaneLine=0;connectable=1;allowArrows=1;expand=1;movable=1;" parent="1" vertex="1">
                    <mxGeometry x="160" y="160" width="160" height="30" as="geometry">
                        <mxRectangle x="200" y="160" width="160" height="26" as="alternateBounds"/>
                    </mxGeometry>
                </mxCell>
                <mxCell id="68" value="" style="endArrow=block;endSize=10;endFill=0;shadow=0;strokeWidth=1;rounded=0;edgeStyle=elbowEdgeStyle;elbow=vertical;entryX=0.5;entryY=1;entryDx=0;entryDy=0;dashed=1;exitX=0.25;exitY=0;exitDx=0;exitDy=0;fontFamily=Verdana;fontStyle=1;labelBackgroundColor=none;labelBorderColor=none;" parent="1" source="33" target="67" edge="1">
                    <mxGeometry width="160" relative="1" as="geometry">
                        <mxPoint x="390" y="240" as="sourcePoint"/>
                        <mxPoint x="480" y="210" as="targetPoint"/>
                    </mxGeometry>
                </mxCell>
                <mxCell id="101" value="实现接口" style="edgeLabel;html=1;align=center;verticalAlign=middle;resizable=0;points=[];labelBackgroundColor=none;fontColor=#E6E6E6;" parent="68" vertex="1" connectable="0">
                    <mxGeometry x="-0.2667" relative="1" as="geometry">
                        <mxPoint x="-17" as="offset"/>
                    </mxGeometry>
                </mxCell>
                <mxCell id="78" style="edgeStyle=elbowEdgeStyle;rounded=0;elbow=vertical;html=1;entryX=0.5;entryY=0;entryDx=0;entryDy=0;startArrow=block;startFill=0;endArrow=none;endFill=0;endSize=10;strokeColor=#FFFFFF;strokeWidth=1;exitX=0.25;exitY=1;exitDx=0;exitDy=0;fontFamily=Verdana;fontStyle=1;labelBackgroundColor=none;labelBorderColor=none;" parent="1" source="70" target="76" edge="1">
                    <mxGeometry relative="1" as="geometry"/>
                </mxCell>
                <mxCell id="82" style="edgeStyle=elbowEdgeStyle;rounded=0;elbow=vertical;html=1;entryX=0.5;entryY=0;entryDx=0;entryDy=0;startArrow=block;startFill=0;endArrow=none;endFill=0;endSize=10;strokeColor=#FFFFFF;strokeWidth=1;fontFamily=Verdana;fontStyle=1;labelBackgroundColor=none;labelBorderColor=none;" parent="1" source="70" target="80" edge="1">
                    <mxGeometry relative="1" as="geometry"/>
                </mxCell>
                <mxCell id="83" style="edgeStyle=elbowEdgeStyle;rounded=0;elbow=vertical;html=1;exitX=0.75;exitY=1;exitDx=0;exitDy=0;startArrow=block;startFill=0;endArrow=none;endFill=0;endSize=10;strokeColor=#FFFFFF;strokeWidth=1;fontFamily=Verdana;fontStyle=1;labelBackgroundColor=none;labelBorderColor=none;entryX=0.5;entryY=0;entryDx=0;entryDy=0;" parent="1" source="70" target="81" edge="1">
                    <mxGeometry relative="1" as="geometry">
                        <Array as="points">
                            <mxPoint x="760" y="370"/>
                        </Array>
                    </mxGeometry>
                </mxCell>
                <mxCell id="70" value="Exception" style="swimlane;fontStyle=1;align=center;verticalAlign=top;childLayout=stackLayout;horizontal=1;startSize=30;horizontalStack=0;resizeParent=1;resizeLast=0;collapsible=1;marginBottom=0;rounded=0;shadow=0;strokeWidth=1;fontFamily=Verdana;labelBackgroundColor=none;labelBorderColor=none;fillColor=#647687;fontColor=#ffffff;strokeColor=#314354;swimlaneLine=0;connectable=1;allowArrows=1;expand=1;" parent="1" vertex="1">
                    <mxGeometry x="480" y="320" width="160" height="30" as="geometry">
                        <mxRectangle x="60" y="590" width="160" height="26" as="alternateBounds"/>
                    </mxGeometry>
                </mxCell>
                <mxCell id="72" value="StackOverflowError&#10;栈溢出错误" style="swimlane;fontStyle=1;align=center;verticalAlign=top;childLayout=stackLayout;horizontal=1;startSize=40;horizontalStack=0;resizeParent=1;resizeLast=0;collapsible=1;marginBottom=0;rounded=0;shadow=0;strokeWidth=1;fontFamily=Verdana;labelBackgroundColor=none;labelBorderColor=none;fillColor=#a0522d;fontColor=#ffffff;strokeColor=#6D1F00;swimlaneLine=0;connectable=1;allowArrows=1;expand=1;" parent="1" vertex="1">
                    <mxGeometry x="-30" y="400" width="160" height="40" as="geometry">
                        <mxRectangle x="60" y="590" width="160" height="26" as="alternateBounds"/>
                    </mxGeometry>
                </mxCell>
                <mxCell id="73" value="OutOfMemoryError&#10;内存溢出错误" style="swimlane;fontStyle=1;align=center;verticalAlign=top;childLayout=stackLayout;horizontal=1;startSize=40;horizontalStack=0;resizeParent=1;resizeLast=0;collapsible=1;marginBottom=0;rounded=0;shadow=0;strokeWidth=1;fontFamily=Verdana;labelBackgroundColor=none;labelBorderColor=none;fillColor=#a0522d;fontColor=#ffffff;strokeColor=#6D1F00;swimlaneLine=0;connectable=1;allowArrows=1;expand=1;" parent="1" vertex="1">
                    <mxGeometry x="190" y="400" width="160" height="40" as="geometry">
                        <mxRectangle x="60" y="590" width="160" height="26" as="alternateBounds"/>
                    </mxGeometry>
                </mxCell>
                <mxCell id="75" style="edgeStyle=elbowEdgeStyle;html=1;exitX=0.75;exitY=1;exitDx=0;exitDy=0;entryX=0.5;entryY=0;entryDx=0;entryDy=0;endArrow=none;endFill=0;strokeColor=#FFFFFF;strokeWidth=1;elbow=vertical;rounded=0;startArrow=block;startFill=0;endSize=10;fontFamily=Verdana;fontStyle=1;labelBackgroundColor=none;labelBorderColor=none;" parent="1" source="39" target="73" edge="1">
                    <mxGeometry relative="1" as="geometry">
                        <mxPoint x="170" y="360" as="sourcePoint"/>
                        <mxPoint x="110" y="390" as="targetPoint"/>
                    </mxGeometry>
                </mxCell>
                <mxCell id="95" style="edgeStyle=elbowEdgeStyle;rounded=0;elbow=vertical;html=1;exitX=0.114;exitY=0.976;exitDx=0;exitDy=0;entryX=0.5;entryY=0;entryDx=0;entryDy=0;shadow=0;labelBackgroundColor=none;labelBorderColor=none;fontFamily=Verdana;startArrow=block;startFill=0;endArrow=none;endFill=0;endSize=10;strokeColor=#FFFFFF;strokeWidth=1;exitPerimeter=0;" parent="1" source="76" target="84" edge="1">
                    <mxGeometry relative="1" as="geometry"/>
                </mxCell>
                <mxCell id="96" style="edgeStyle=elbowEdgeStyle;rounded=0;elbow=vertical;html=1;exitX=0.314;exitY=1;exitDx=0;exitDy=0;entryX=0.5;entryY=0;entryDx=0;entryDy=0;shadow=0;labelBackgroundColor=none;labelBorderColor=none;fontFamily=Verdana;startArrow=block;startFill=0;endArrow=none;endFill=0;endSize=10;strokeColor=#FFFFFF;strokeWidth=1;exitPerimeter=0;" parent="1" source="76" target="85" edge="1">
                    <mxGeometry relative="1" as="geometry">
                        <Array as="points">
                            <mxPoint x="360" y="460"/>
                        </Array>
                    </mxGeometry>
                </mxCell>
                <mxCell id="98" style="edgeStyle=elbowEdgeStyle;rounded=0;elbow=vertical;html=1;exitX=0.679;exitY=1;exitDx=0;exitDy=0;shadow=0;labelBackgroundColor=none;labelBorderColor=none;fontFamily=Verdana;startArrow=block;startFill=0;endArrow=none;endFill=0;endSize=10;strokeColor=#FFFFFF;strokeWidth=1;exitPerimeter=0;" parent="1" source="76" target="92" edge="1">
                    <mxGeometry relative="1" as="geometry">
                        <Array as="points">
                            <mxPoint x="600" y="460"/>
                        </Array>
                    </mxGeometry>
                </mxCell>
                <mxCell id="99" style="edgeStyle=elbowEdgeStyle;rounded=0;elbow=vertical;html=1;exitX=0.861;exitY=1.071;exitDx=0;exitDy=0;shadow=0;labelBackgroundColor=none;labelBorderColor=none;fontFamily=Verdana;startArrow=block;startFill=0;endArrow=none;endFill=0;endSize=10;strokeColor=#FFFFFF;strokeWidth=1;exitPerimeter=0;" parent="1" source="76" target="93" edge="1">
                    <mxGeometry relative="1" as="geometry">
                        <Array as="points"/>
                    </mxGeometry>
                </mxCell>
                <mxCell id="76" value="RuntimeException&#10;运行时异常" style="swimlane;fontStyle=1;align=center;verticalAlign=top;childLayout=stackLayout;horizontal=1;startSize=40;horizontalStack=0;resizeParent=1;resizeLast=0;collapsible=1;marginBottom=0;rounded=0;shadow=0;strokeWidth=1;fontFamily=Verdana;labelBackgroundColor=none;labelBorderColor=none;fillColor=#a0522d;fontColor=#ffffff;strokeColor=#6D1F00;swimlaneLine=0;connectable=1;allowArrows=1;expand=1;" parent="1" vertex="1">
                    <mxGeometry x="370" y="400" width="160" height="40" as="geometry">
                        <mxRectangle x="60" y="590" width="160" height="26" as="alternateBounds"/>
                    </mxGeometry>
                </mxCell>
                <mxCell id="80" value="FileNotFoundException&#10;文件未找到异常" style="swimlane;fontStyle=1;align=center;verticalAlign=top;childLayout=stackLayout;horizontal=1;startSize=40;horizontalStack=0;resizeParent=1;resizeLast=0;collapsible=1;marginBottom=0;rounded=0;shadow=0;strokeWidth=1;fontFamily=Verdana;labelBackgroundColor=none;labelBorderColor=none;fillColor=#a0522d;fontColor=#ffffff;strokeColor=#6D1F00;swimlaneLine=0;connectable=1;allowArrows=1;expand=1;" parent="1" vertex="1">
                    <mxGeometry x="550" y="400" width="180" height="40" as="geometry">
                        <mxRectangle x="60" y="590" width="160" height="26" as="alternateBounds"/>
                    </mxGeometry>
                </mxCell>
                <mxCell id="81" value="ClassNotFoundException&#10;类未找到异常" style="swimlane;fontStyle=1;align=center;verticalAlign=top;childLayout=stackLayout;horizontal=1;startSize=40;horizontalStack=0;resizeParent=1;resizeLast=0;collapsible=1;marginBottom=0;rounded=0;shadow=0;strokeWidth=1;fontFamily=Verdana;labelBackgroundColor=none;labelBorderColor=none;fillColor=#a0522d;fontColor=#ffffff;strokeColor=#6D1F00;swimlaneLine=0;connectable=1;allowArrows=1;expand=1;" parent="1" vertex="1">
                    <mxGeometry x="750" y="400" width="180" height="40" as="geometry">
                        <mxRectangle x="770" y="400" width="160" height="26" as="alternateBounds"/>
                    </mxGeometry>
                </mxCell>
                <mxCell id="84" value="NullPointerException&#10;空指针异常" style="swimlane;fontStyle=1;align=center;verticalAlign=top;childLayout=stackLayout;horizontal=1;startSize=40;horizontalStack=0;resizeParent=1;resizeLast=0;collapsible=1;marginBottom=0;rounded=0;shadow=0;strokeWidth=1;fontFamily=Verdana;labelBackgroundColor=none;labelBorderColor=none;swimlaneLine=0;connectable=1;allowArrows=1;expand=1;fillColor=#76608a;fontColor=#ffffff;strokeColor=#432D57;" parent="1" vertex="1">
                    <mxGeometry x="-30" y="470" width="160" height="40" as="geometry">
                        <mxRectangle x="60" y="590" width="160" height="26" as="alternateBounds"/>
                    </mxGeometry>
                </mxCell>
                <mxCell id="85" value="ArithmeticException&#10;数学运算异常" style="swimlane;fontStyle=1;align=center;verticalAlign=top;childLayout=stackLayout;horizontal=1;startSize=40;horizontalStack=0;resizeParent=1;resizeLast=0;collapsible=1;marginBottom=0;rounded=0;shadow=0;strokeWidth=1;fontFamily=Verdana;labelBackgroundColor=none;labelBorderColor=none;swimlaneLine=0;connectable=1;allowArrows=1;expand=1;fillColor=#76608a;fontColor=#ffffff;strokeColor=#432D57;" parent="1" vertex="1">
                    <mxGeometry x="150" y="470" width="160" height="40" as="geometry">
                        <mxRectangle x="60" y="590" width="160" height="26" as="alternateBounds"/>
                    </mxGeometry>
                </mxCell>
                <mxCell id="86" value="ArrayIndexOutOfBoundsException&#10;数组下标越界异常" style="swimlane;fontStyle=1;align=center;verticalAlign=top;childLayout=stackLayout;horizontal=1;startSize=40;horizontalStack=0;resizeParent=1;resizeLast=0;collapsible=1;marginBottom=0;rounded=0;shadow=0;strokeWidth=1;swimlaneLine=0;connectable=1;allowArrows=1;expand=1;fontFamily=Verdana;fillColor=#76608a;fontColor=#ffffff;strokeColor=#432D57;" parent="1" vertex="1">
                    <mxGeometry x="325" y="470" width="250" height="40" as="geometry">
                        <mxRectangle x="60" y="590" width="160" height="26" as="alternateBounds"/>
                    </mxGeometry>
                </mxCell>
                <mxCell id="92" value="ClassCastException&#10;类型转换异常" style="swimlane;fontStyle=1;align=center;verticalAlign=top;childLayout=stackLayout;horizontal=1;startSize=40;horizontalStack=0;resizeParent=1;resizeLast=0;collapsible=1;marginBottom=0;rounded=0;shadow=0;strokeWidth=1;fontFamily=Verdana;labelBackgroundColor=none;labelBorderColor=none;swimlaneLine=0;connectable=1;allowArrows=1;expand=1;fillColor=#76608a;fontColor=#ffffff;strokeColor=#432D57;" parent="1" vertex="1">
                    <mxGeometry x="590" y="470" width="160" height="40" as="geometry">
                        <mxRectangle x="60" y="590" width="160" height="26" as="alternateBounds"/>
                    </mxGeometry>
                </mxCell>
                <mxCell id="93" value="NumberFormatException&#10;数字格式不正确异常" style="swimlane;fontStyle=1;align=center;verticalAlign=top;childLayout=stackLayout;horizontal=1;startSize=40;horizontalStack=0;resizeParent=1;resizeLast=0;collapsible=1;marginBottom=0;rounded=0;shadow=0;strokeWidth=1;fontFamily=Verdana;labelBackgroundColor=none;labelBorderColor=none;swimlaneLine=0;connectable=1;allowArrows=1;expand=1;fillColor=#76608a;fontColor=#ffffff;strokeColor=#432D57;" parent="1" vertex="1">
                    <mxGeometry x="770" y="470" width="180" height="40" as="geometry">
                        <mxRectangle x="60" y="590" width="160" height="26" as="alternateBounds"/>
                    </mxGeometry>
                </mxCell>
                <mxCell id="100" style="rounded=0;elbow=vertical;html=1;exitX=0.5;exitY=1;exitDx=0;exitDy=0;shadow=0;labelBackgroundColor=none;labelBorderColor=none;fontFamily=Verdana;startArrow=block;startFill=0;endArrow=none;endFill=0;endSize=10;strokeColor=#FFFFFF;strokeWidth=1;entryX=0.5;entryY=0;entryDx=0;entryDy=0;" parent="1" source="76" target="86" edge="1">
                    <mxGeometry relative="1" as="geometry">
                        <mxPoint x="453" y="470" as="targetPoint"/>
                    </mxGeometry>
                </mxCell>
            </root>
        </mxGraphModel>
    </diagram>
</mxfile>